HIERARCHY
ROOT mixamorig:Hips
{
	OFFSET 0.000000 201.639420 0.000000
	CHANNELS 6 Xposition Yposition Zposition Xrotation Yrotation Zrotation
	JOINT mixamorig:Spine
	{
		OFFSET 0.006200 19.524994 -2.481800
		CHANNELS 3 Xrotation Yrotation Zrotation
		JOINT mixamorig:Spine1
		{
			OFFSET -0.000900 22.835007 -2.825400
			CHANNELS 3 Xrotation Yrotation Zrotation
			JOINT mixamorig:Spine2
			{
				OFFSET -0.020600 26.552490 -3.193300
				CHANNELS 3 Xrotation Yrotation Zrotation
				JOINT mixamorig:Neck
				{
					OFFSET -0.060000 30.701813 1.352200
					CHANNELS 3 Xrotation Yrotation Zrotation
					JOINT mixamorig:Head
					{
						OFFSET -0.087200 22.547607 3.670900
						CHANNELS 3 Xrotation Yrotation Zrotation
						JOINT mixamorig:HeadTop_End
						{
							OFFSET -0.830600 40.355194 7.893500
							CHANNELS 3 Xrotation Yrotation Zrotation
							End Site
							{
								OFFSET 0.000000 30.592346 0.000000
							}
						}
						JOINT mixamorig:RightEye
						{
							OFFSET -6.302100 18.118591 16.197100
							CHANNELS 3 Xrotation Yrotation Zrotation
							End Site
							{
								OFFSET 0.000000 30.592346 0.000000
							}
						}
						JOINT mixamorig:LeftEye
						{
							OFFSET 6.741500 18.382690 16.401899
							CHANNELS 3 Xrotation Yrotation Zrotation
							End Site
							{
								OFFSET 0.000000 30.592346 0.000000
							}
						}
					}
				}
				JOINT mixamorig:LeftShoulder
				{
					OFFSET 11.924900 18.230499 1.425400
					CHANNELS 3 Xrotation Yrotation Zrotation
					JOINT mixamorig:LeftArm
					{
						OFFSET 25.435989 -0.697632 -5.229300
						CHANNELS 3 Xrotation Yrotation Zrotation
						JOINT mixamorig:LeftForeArm
						{
							OFFSET 54.684776 0.000000 0.000000
							CHANNELS 3 Xrotation Yrotation Zrotation
							JOINT mixamorig:LeftHand
							{
								OFFSET 55.098175 0.000000 0.000000
								CHANNELS 3 Xrotation Yrotation Zrotation
								JOINT mixamorig:LeftHandMiddle1
								{
									OFFSET 23.369751 0.000000 0.000000
									CHANNELS 3 Xrotation Yrotation Zrotation
									JOINT mixamorig:LeftHandMiddle2
									{
										OFFSET 6.378677 0.000000 0.000000
										CHANNELS 3 Xrotation Yrotation Zrotation
										JOINT mixamorig:LeftHandMiddle3
										{
											OFFSET 6.148331 0.000000 0.000000
											CHANNELS 3 Xrotation Yrotation Zrotation
											JOINT mixamorig:LeftHandMiddle4
											{
												OFFSET 6.582504 0.000000 0.000000
												CHANNELS 3 Xrotation Yrotation Zrotation
												End Site
												{
													OFFSET -1.168900 6.395691 1.028606
												}
											}
										}
									}
								}
								JOINT mixamorig:LeftHandThumb1
								{
									OFFSET 7.235672 -3.848206 5.434273
									CHANNELS 3 Xrotation Yrotation Zrotation
									JOINT mixamorig:LeftHandThumb2
									{
										OFFSET 6.568451 -3.792297 3.792300
										CHANNELS 3 Xrotation Yrotation Zrotation
										JOINT mixamorig:LeftHandThumb3
										{
											OFFSET 6.063080 -3.500519 3.500518
											CHANNELS 3 Xrotation Yrotation Zrotation
											JOINT mixamorig:LeftHandThumb4
											{
												OFFSET 4.793182 -2.767334 2.767349
												CHANNELS 3 Xrotation Yrotation Zrotation
												End Site
												{
													OFFSET 0.101639 6.054260 1.275483
												}
											}
										}
									}
								}
								JOINT mixamorig:LeftHandIndex1
								{
									OFFSET 23.101074 -0.309540 4.992809
									CHANNELS 3 Xrotation Yrotation Zrotation
									JOINT mixamorig:LeftHandIndex2
									{
										OFFSET 6.226883 0.000000 0.000000
										CHANNELS 3 Xrotation Yrotation Zrotation
										JOINT mixamorig:LeftHandIndex3
										{
											OFFSET 6.094330 0.000000 0.000000
											CHANNELS 3 Xrotation Yrotation Zrotation
											JOINT mixamorig:LeftHandIndex4
											{
												OFFSET 5.482605 0.000000 0.000000
												CHANNELS 3 Xrotation Yrotation Zrotation
												End Site
												{
													OFFSET -1.427902 5.233032 0.797164
												}
											}
										}
									}
								}
								JOINT mixamorig:LeftHandRing1
								{
									OFFSET 22.299240 0.021149 -3.964172
									CHANNELS 3 Xrotation Yrotation Zrotation
									JOINT mixamorig:LeftHandRing2
									{
										OFFSET 6.321869 0.000000 0.000000
										CHANNELS 3 Xrotation Yrotation Zrotation
										JOINT mixamorig:LeftHandRing3
										{
											OFFSET 5.899796 0.000000 0.000000
											CHANNELS 3 Xrotation Yrotation Zrotation
											JOINT mixamorig:LeftHandRing4
											{
												OFFSET 6.517899 0.000000 0.000000
												CHANNELS 3 Xrotation Yrotation Zrotation
												End Site
												{
													OFFSET -1.637299 6.232208 0.980890
												}
											}
										}
									}
								}
								JOINT mixamorig:LeftHandPinky1
								{
									OFFSET 20.463791 -0.302338 -8.562233
									CHANNELS 3 Xrotation Yrotation Zrotation
									JOINT mixamorig:LeftHandPinky2
									{
										OFFSET 6.908646 0.000000 0.000000
										CHANNELS 3 Xrotation Yrotation Zrotation
										JOINT mixamorig:LeftHandPinky3
										{
											OFFSET 4.622849 0.000000 0.000000
											CHANNELS 3 Xrotation Yrotation Zrotation
											JOINT mixamorig:LeftHandPinky4
											{
												OFFSET 5.216080 0.000000 0.000000
												CHANNELS 3 Xrotation Yrotation Zrotation
												End Site
												{
													OFFSET -0.606308 5.116241 0.814926
												}
											}
										}
									}
								}
							}
						}
					}
				}
				JOINT mixamorig:RightShoulder
				{
					OFFSET -12.001300 18.284088 1.348900
					CHANNELS 3 Xrotation Yrotation Zrotation
					JOINT mixamorig:RightArm
					{
						OFFSET -25.308500 -0.751312 -5.164599
						CHANNELS 3 Xrotation Yrotation Zrotation
						JOINT mixamorig:RightForeArm
						{
							OFFSET -54.684429 0.000000 0.000000
							CHANNELS 3 Xrotation Yrotation Zrotation
							JOINT mixamorig:RightHand
							{
								OFFSET -55.150291 0.000000 0.000000
								CHANNELS 3 Xrotation Yrotation Zrotation
								JOINT mixamorig:RightHandMiddle1
								{
									OFFSET -23.317566 0.000000 0.000000
									CHANNELS 3 Xrotation Yrotation Zrotation
									JOINT mixamorig:RightHandMiddle2
									{
										OFFSET -6.378403 0.000000 0.000000
										CHANNELS 3 Xrotation Yrotation Zrotation
										JOINT mixamorig:RightHandMiddle3
										{
											OFFSET -6.148193 0.000000 0.000000
											CHANNELS 3 Xrotation Yrotation Zrotation
											JOINT mixamorig:RightHandMiddle4
											{
												OFFSET -6.583389 0.000000 0.000000
												CHANNELS 3 Xrotation Yrotation Zrotation
												End Site
												{
													OFFSET 1.171692 6.395905 1.029786
												}
											}
										}
									}
								}
								JOINT mixamorig:RightHandThumb1
								{
									OFFSET -7.190521 -3.860474 5.435846
									CHANNELS 3 Xrotation Yrotation Zrotation
									JOINT mixamorig:RightHandThumb2
									{
										OFFSET -6.567429 -3.791718 3.791708
										CHANNELS 3 Xrotation Yrotation Zrotation
										JOINT mixamorig:RightHandThumb3
										{
											OFFSET -6.062469 -3.500153 3.500166
											CHANNELS 3 Xrotation Yrotation Zrotation
											JOINT mixamorig:RightHandThumb4
											{
												OFFSET -4.792618 -2.767029 2.767022
												CHANNELS 3 Xrotation Yrotation Zrotation
												End Site
												{
													OFFSET -0.100327 6.053253 1.276754
												}
											}
										}
									}
								}
								JOINT mixamorig:RightHandIndex1
								{
									OFFSET -23.048981 -0.310791 4.992554
									CHANNELS 3 Xrotation Yrotation Zrotation
									JOINT mixamorig:RightHandIndex2
									{
										OFFSET -6.227539 0.000000 0.000000
										CHANNELS 3 Xrotation Yrotation Zrotation
										JOINT mixamorig:RightHandIndex3
										{
											OFFSET -6.095047 0.000000 0.000000
											CHANNELS 3 Xrotation Yrotation Zrotation
											JOINT mixamorig:RightHandIndex4
											{
												OFFSET -5.484772 0.000000 0.000000
												CHANNELS 3 Xrotation Yrotation Zrotation
												End Site
												{
													OFFSET 1.420593 5.237305 0.797056
												}
											}
										}
									}
								}
								JOINT mixamorig:RightHandRing1
								{
									OFFSET -22.246323 0.020569 -3.963762
									CHANNELS 3 Xrotation Yrotation Zrotation
									JOINT mixamorig:RightHandRing2
									{
										OFFSET -6.322128 0.000000 0.000000
										CHANNELS 3 Xrotation Yrotation Zrotation
										JOINT mixamorig:RightHandRing3
										{
											OFFSET -5.900024 0.000000 0.000000
											CHANNELS 3 Xrotation Yrotation Zrotation
											JOINT mixamorig:RightHandRing4
											{
												OFFSET -6.518356 0.000000 0.000000
												CHANNELS 3 Xrotation Yrotation Zrotation
												End Site
												{
													OFFSET 1.636398 6.232697 0.982186
												}
											}
										}
									}
								}
								JOINT mixamorig:RightHandPinky1
								{
									OFFSET -20.411011 -0.303314 -8.561701
									CHANNELS 3 Xrotation Yrotation Zrotation
									JOINT mixamorig:RightHandPinky2
									{
										OFFSET -6.907349 0.000000 0.000000
										CHANNELS 3 Xrotation Yrotation Zrotation
										JOINT mixamorig:RightHandPinky3
										{
											OFFSET -4.623840 0.000000 0.000000
											CHANNELS 3 Xrotation Yrotation Zrotation
											JOINT mixamorig:RightHandPinky4
											{
												OFFSET -5.218353 0.000000 0.000000
												CHANNELS 3 Xrotation Yrotation Zrotation
												End Site
												{
													OFFSET 0.602097 5.118835 0.816273
												}
											}
										}
									}
								}
							}
						}
					}
				}
			}
		}
	}
	JOINT mixamorig:LeftUpLeg
	{
		OFFSET 18.168400 -13.561905 -0.039000
		CHANNELS 3 Xrotation Yrotation Zrotation
		JOINT mixamorig:LeftLeg
		{
			OFFSET 0.577358 -80.825211 -3.695000
			CHANNELS 3 Xrotation Yrotation Zrotation
			JOINT mixamorig:LeftFoot
			{
				OFFSET -0.577356 -83.370262 -6.520700
				CHANNELS 3 Xrotation Yrotation Zrotation
				JOINT mixamorig:LeftToeBase
				{
					OFFSET 0.750401 -20.798306 25.135401
					CHANNELS 3 Xrotation Yrotation Zrotation
					JOINT mixamorig:LeftToe_End
					{
						OFFSET -0.000500 0.001200 19.917799
						CHANNELS 3 Xrotation Yrotation Zrotation
						End Site
						{
							OFFSET 0.000000 19.917805 0.000000
						}
					}
				}
			}
		}
	}
	JOINT mixamorig:RightUpLeg
	{
		OFFSET -18.162500 -13.585098 -0.041000
		CHANNELS 3 Xrotation Yrotation Zrotation
		JOINT mixamorig:RightLeg
		{
			OFFSET -0.595024 -80.945297 -3.631900
			CHANNELS 3 Xrotation Yrotation Zrotation
			JOINT mixamorig:RightFoot
			{
				OFFSET 0.595024 -83.218193 -6.561200
				CHANNELS 3 Xrotation Yrotation Zrotation
				JOINT mixamorig:RightToeBase
				{
					OFFSET -0.753601 -20.807106 25.115000
					CHANNELS 3 Xrotation Yrotation Zrotation
					JOINT mixamorig:RightToe_End
					{
						OFFSET 0.000299 0.001700 19.918200
						CHANNELS 3 Xrotation Yrotation Zrotation
						End Site
						{
							OFFSET 0.000000 19.918203 0.000000
						}
					}
				}
			}
		}
	}
}
MOTION
Frames: 4
Frame Time: 0.033333
-262.303833 208.214371 -23.982883 -9.999581 -10.294842 -9.146631 6.580564 1.856307 0.996646 13.190367 2.361427 0.635648 13.190363 2.361429 0.635649 6.116953 10.178047 1.328442 -1.995094 9.304869 0.990396 -0.000000 0.000000 0.000001 -0.000000 0.000000 0.000001 -0.000000 0.000000 0.000001 1.864451 1.915043 27.990711 -63.888777 -31.780320 -20.115863 -18.781253 -40.531271 14.599400 25.828879 -1.211039 36.574516 -10.129352 -3.870886 -67.770551 -1.770941 1.712608 -28.154414 -0.000001 -0.000006 0.000002 0.000001 0.000001 0.000001 -11.359779 -10.015872 28.396313 19.619963 23.753965 -10.340926 0.000011 0.000024 -0.000015 0.000002 0.000000 -0.000001 -7.846987 -3.445349 -67.086972 -4.890187 2.724600 -36.315378 -0.000002 0.000005 -0.000004 -0.000001 -0.000000 0.000000 -15.176894 7.294587 -70.199018 7.765733 -0.420427 -31.516364 -0.000008 0.000005 -0.000002 -0.000000 0.000000 0.000001 -16.478631 5.436440 -74.870785 8.341829 -0.186312 -18.883629 0.000002 -0.000017 0.000000 -0.000001 0.000000 0.000001 -10.139685 -1.378940 -33.438199 -84.573499 27.879777 57.782239 -24.555999 36.424767 -14.122563 32.552128 10.959356 -39.208954 -6.652331 -3.923905 64.480606 9.405717 5.988306 38.250244 -0.000003 -0.000003 0.000001 0.000001 0.000001 -0.000002 15.333307 1.501364 -10.491244 -10.398750 -3.069927 -10.220626 0.000001 -0.000012 0.000001 0.000000 -0.000000 0.000003 0.915862 3.498810 64.445321 1.728281 9.560693 38.860378 -0.000005 -0.000003 0.000002 -0.000000 0.000001 0.000000 -5.546247 1.390319 64.781025 0.233701 -1.791753 39.145665 -0.000005 -0.000006 0.000004 -0.000002 0.000001 0.000000 -17.806090 -16.572358 61.040649 25.327803 3.861584 27.747415 0.000004 0.000014 0.000001 0.000001 -0.000001 0.000001 -101.818176 -5.915729 35.399426 106.110547 -1.615649 -2.761641 -4.184347 -0.630837 -2.044932 -59.402886 -18.843681 -17.617621 0.000000 0.000000 0.000000 -106.731131 -17.496358 -19.374745 109.533688 18.335453 5.428689 -10.250236 -2.743492 5.373805 -49.002642 5.349870 4.715164 0.000001 -0.000002 0.000000 
-270.168579 207.981033 -19.930851 -11.680312 -3.318967 -6.343799 7.208273 1.054589 0.618212 14.428428 1.266060 0.319388 14.428421 1.266060 0.319388 4.552608 10.589489 1.739576 -2.583975 9.748113 1.189603 -0.000001 0.000001 -0.000001 -0.000001 0.000001 -0.000001 -0.000001 0.000001 -0.000001 2.881801 1.113882 25.920214 -61.980586 -34.372278 -13.512294 -22.019697 -36.762373 9.851750 21.817072 -4.724689 39.381331 -10.130351 -3.870547 -67.776186 -1.770955 1.712763 -28.155503 -0.000002 -0.000006 0.000001 -0.000002 0.000000 0.000000 -11.360389 -10.015168 28.398391 19.621569 23.756040 -10.342147 0.000012 0.000023 -0.000015 0.000001 -0.000002 -0.000002 -7.847322 -3.444817 -67.093385 -4.890428 2.724855 -36.317147 -0.000002 0.000005 -0.000003 -0.000001 0.000000 -0.000000 -15.177970 7.295431 -70.202952 7.766430 -0.420756 -31.517570 -0.000004 0.000004 -0.000002 -0.000000 -0.000001 -0.000000 -16.480256 5.436883 -74.874562 8.342402 -0.185973 -18.882939 0.000003 -0.000016 0.000001 0.000000 0.000000 0.000000 -9.494987 -3.935555 -33.764852 -77.706734 26.333439 54.870253 -14.817949 50.813496 -21.910781 26.498940 -0.051498 -34.521890 -6.652994 -3.924270 64.498931 9.405608 5.990207 38.263833 0.000001 -0.000004 0.000001 0.000002 0.000001 -0.000000 15.333708 1.500670 -10.491564 -10.399299 -3.069208 -10.223895 0.000001 -0.000012 0.000005 -0.000002 0.000000 -0.000002 0.916135 3.499577 64.468209 1.727149 9.563065 38.876634 -0.000005 -0.000003 0.000002 -0.000001 -0.000003 -0.000004 -5.547324 1.390853 64.794979 0.233631 -1.791488 39.155651 -0.000004 -0.000006 0.000004 0.000000 0.000002 -0.000001 -17.806452 -16.570947 61.050451 25.331613 3.863069 27.751921 0.000008 0.000013 0.000002 -0.000002 0.000002 0.000001 -100.281336 -2.324300 34.922224 106.322993 -5.052195 -1.804936 -4.342067 -0.358468 -4.272695 -58.513425 -22.086048 -18.231196 0.000001 0.000001 -0.000000 -107.132412 -17.156902 -20.869447 114.362932 11.663783 2.620078 -12.795629 -2.749594 4.969125 -53.513907 7.122734 7.384389 0.000002 -0.000000 0.000000 
-277.200073 208.916550 -15.489620 -11.944587 1.925575 -3.534998 7.445935 0.289789 0.188711 14.893275 0.316439 0.038051 14.893267 0.316438 0.038055 2.475094 10.901448 2.179846 -3.332652 10.082079 1.431355 0.000003 -0.000001 0.000000 0.000003 -0.000001 0.000000 0.000003 -0.000001 0.000000 3.016298 1.633197 23.539480 -63.109438 -36.172689 -12.250880 -21.950006 -34.459329 8.627104 19.259872 -8.774496 40.495222 -10.130315 -3.870599 -67.775960 -1.770960 1.712768 -28.155585 -0.000002 -0.000006 0.000001 0.000001 0.000001 -0.000000 -11.360380 -10.015217 28.398315 19.621489 23.755951 -10.342074 0.000011 0.000021 -0.000017 0.000001 0.000001 0.000001 -7.847309 -3.444866 -67.093139 -4.890424 2.724833 -36.317103 -0.000001 0.000006 -0.000003 -0.000000 0.000000 -0.000000 -15.177932 7.295369 -70.202808 7.766396 -0.420756 -31.517655 -0.000007 0.000003 -0.000003 -0.000000 -0.000001 -0.000002 -16.480299 5.436831 -74.874405 8.342373 -0.185985 -18.882971 0.000000 -0.000016 0.000001 -0.000002 -0.000000 0.000001 -7.346425 -3.410779 -34.775123 -71.029255 22.633497 49.853428 0.315658 63.902389 -36.714849 23.677399 -11.018162 -29.706354 -6.652568 -3.924488 64.490578 9.405929 5.989363 38.257187 0.000001 -0.000001 -0.000001 0.000003 0.000002 0.000002 15.333694 1.500700 -10.491545 -10.399207 -3.069031 -10.223802 0.000000 -0.000013 0.000005 -0.000001 -0.000000 -0.000001 0.916712 3.498111 64.458128 1.728021 9.561986 38.868079 -0.000001 -0.000006 0.000002 0.000001 0.000001 -0.000000 -5.546577 1.390284 64.788463 0.233730 -1.791790 39.150976 -0.000003 -0.000006 0.000004 0.000000 0.000001 0.000001 -17.806469 -16.571963 61.045895 25.330549 3.861944 27.749214 0.000007 0.000015 -0.000000 0.000000 -0.000001 0.000001 -98.970233 0.166866 33.995163 105.962407 -7.875208 -0.982516 -4.820923 -0.085492 -6.367735 -57.710215 -23.473410 -18.828332 0.000002 0.000001 0.000000 -108.744384 -16.901223 -22.707230 119.023587 6.117373 0.754979 -12.404548 -2.277365 3.142074 -58.796406 7.111022 9.242154 0.000000 -0.000001 -0.000001 
-283.359192 210.197128 -11.952486 -11.045654 4.811910 -1.818735 7.356034 -0.251715 -0.091754 14.711818 -0.435371 -0.158650 14.711818 -0.435370 -0.158652 -0.439515 11.109925 2.655286 -4.318859 10.294047 1.737037 -0.000000 -0.000000 -0.000000 -0.000000 -0.000000 -0.000000 -0.000000 -0.000000 -0.000000 1.228022 3.162076 21.001510 -65.304245 -38.245566 -14.566063 -21.454428 -31.554531 8.452739 19.033869 -13.412529 40.798352 -10.129979 -3.870702 -67.774075 -1.770944 1.712719 -28.155353 -0.000003 -0.000006 0.000001 -0.000002 0.000000 0.000000 -11.360163 -10.015425 28.397627 19.620975 23.755253 -10.341694 0.000010 0.000022 -0.000016 0.000001 -0.000000 0.000002 -7.847181 -3.445014 -67.090988 -4.890342 2.724751 -36.316505 -0.000001 0.000006 -0.000001 0.000000 0.000000 0.000000 -15.177555 7.295121 -70.201490 7.766169 -0.420677 -31.517392 -0.000006 0.000004 -0.000001 -0.000000 -0.000001 -0.000000 -16.479889 5.436665 -74.873107 8.342180 -0.186106 -18.883204 0.000000 -0.000016 0.000001 -0.000001 -0.000001 0.000001 -5.136879 -0.371107 -36.075997 -67.024865 18.841053 45.760833 23.122711 71.238047 -60.351155 24.147278 -19.477871 -24.576665 -6.652275 -3.924382 64.482552 9.406052 5.988531 38.251146 0.000002 -0.000003 0.000002 0.000001 0.000001 -0.000000 15.333542 1.500963 -10.491458 -10.398925 -3.069177 -10.222776 0.000002 -0.000013 0.000006 -0.000002 -0.000000 -0.000000 0.916900 3.497442 64.448190 1.728574 9.560975 38.860802 -0.000000 -0.000005 0.000001 0.000001 -0.000000 -0.000001 -5.546061 1.389983 64.782323 0.233807 -1.791945 39.146734 -0.000004 -0.000006 0.000005 -0.000000 0.000000 -0.000002 -17.806366 -16.572640 61.041585 25.329031 3.861191 27.747085 0.000006 0.000013 0.000002 -0.000002 -0.000002 -0.000000 -98.538053 0.827967 33.710604 105.027389 -9.135632 -0.632293 -4.822479 -0.079258 -7.408465 -57.553243 -23.511342 -20.453678 0.000001 0.000001 -0.000001 -110.321147 -17.684903 -24.298364 121.236213 3.345830 0.695289 -10.847445 -1.191036 -0.869498 -63.766728 5.671428 10.164147 0.000001 -0.000003 0.000000 
